PathFileType	4	(X/Y/Z)	D:\TRACE\spotREDO_2-26-24\spot_Both_Motion_3_5-v60.trc
DataRate	CameraRate	NumFrames	NumMarkers	Units	OrigDataRate	OrigDataStartFrame	OrigNumFrames
100.00	100.00	      38	9	mm	100.00	2626	      7000
Frame#	Time	front left toe			Front right toe			aft left toe			aft right toe			Arm			FL body			FR body			AL Body			AR Body			
		X1	Y1	Z1	X2	Y2	Z2	X3	Y3	Z3	X4	Y4	Z4	X5	Y5	Z5	X6	Y6	Z6	X7	Y7	Z7	X8	Y8	Z8	X9	Y9	Z9	

2626	26.250	-216.50299	77.73596	-438.27676	182.18756	70.13804	-380.63840	-276.19119	5.84649	131.21584	129.22003	2.78684	209.04996	46.08628	795.35181	-729.53827	-101.93972	639.05389	-479.62613	53.37968	642.56006	-468.67557	-168.44685	539.54578	396.09821	-21.58237	532.42645	408.46274	
2627	26.260	-216.53284	77.76995	-438.21661	182.06313	70.06190	-380.48978	-276.18845	5.81504	131.21637	129.24564	2.73306	209.09601	45.89450	795.44147	-729.13623	-101.26894	638.96722	-478.34344	54.00063	642.72009	-467.54309	-167.79272	538.94482	397.13455	-21.04547	531.93591	409.40179	
2628	26.270	-216.53398	77.74540	-438.16614	182.01302	69.98164	-380.42538	-276.20837	5.83665	131.23267	129.20891	2.70788	209.17853	45.73804	795.47443	-728.86621	-100.92230	639.36090	-477.42773	54.59098	642.97614	-466.54797	-167.09927	538.42041	398.32410	-20.39286	531.48346	410.36734	
2629	26.280	-216.49031	77.82076	-438.13495	181.92992	69.88451	-380.38028	-276.23480	5.87697	131.29936	129.17828	2.65007	209.25706	45.72432	795.55060	-728.68988	-99.77718	639.27734	-476.04483	55.42207	643.09131	-465.07462	-166.38293	537.80981	399.61841	-19.48809	530.94843	411.53555	
2630	26.290	-216.49316	78.01241	-438.06372	181.94218	70.03145	-380.36880	-276.31351	6.01472	131.33543	129.18608	2.66212	209.39005	45.68406	795.67395	-728.52673	-99.42834	639.65045	-475.04578	56.19122	643.25299	-463.79575	-165.69493	537.40350	400.69910	-18.98714	530.52875	412.82324	
2631	26.300	-216.60112	78.05442	-438.06351	182.05688	70.09637	-380.25284	-276.29318	6.03032	131.31905	129.18738	2.69677	209.51628	45.43302	795.82855	-728.43933	-98.48245	639.63330	-473.42624	56.94100	643.52490	-462.53091	-165.04863	536.82263	401.94794	-18.01375	529.97229	414.01517	
2632	26.310	-216.90883	80.07187	-437.45657	181.41893	69.81951	-380.14682	-276.26248	6.06057	131.44757	129.27528	2.27739	210.14926	45.32062	795.92505	-728.31213	-97.58524	640.03058	-472.08807	57.75100	643.76184	-461.21243	-164.16711	536.03802	403.19153	-17.17122	529.10815	415.43265	
2633	26.320	-219.00786	87.72739	-433.95804	182.56712	68.99860	-379.64212	-275.75836	6.23603	131.66830	129.47327	1.82030	210.06937	45.38644	796.07855	-728.25598	-96.45790	639.70038	-471.01001	59.07175	643.97772	-459.70871	-164.06206	535.00403	404.03610	-17.20043	528.54108	416.54681	
2634	26.330	-215.40546	98.31088	-430.58041	182.79309	68.58954	-379.73267	-275.28946	6.12397	131.45422	129.51187	1.83059	210.08061	45.87479	796.22888	-727.83173	-95.36846	639.28217	-470.05078	60.14588	643.86365	-458.65454	-163.65964	534.13489	405.08453	-17.10538	528.18243	417.45276	
2635	26.340	-218.73102	111.04406	-429.27020	182.62762	68.53183	-379.80191	-275.38464	6.24678	131.80215	129.43764	1.81252	210.08363	45.93002	796.27924	-727.91656	-94.48855	638.76605	-469.05875	60.61207	643.79883	-457.45917	-162.87657	533.52612	406.07214	-16.40178	527.59088	418.52744	
2636	26.350	-219.79167	123.74461	-431.91602	182.95471	68.51468	-379.52667	-275.52887	6.58030	131.97885	129.44830	1.82011	210.15224	45.71372	796.62024	-728.21954	-94.17314	638.30731	-468.11749	61.10801	643.68732	-456.38980	-162.67557	532.95917	407.01596	-16.20701	527.69647	419.49670	
2637	26.360	-221.96771	136.49033	-435.91730	182.64185	68.42748	-379.77951	-275.45291	6.55469	131.77531	129.65744	1.83420	210.20236	45.68861	796.92572	-728.03143	-93.94040	638.09351	-466.94482	61.36102	643.50360	-455.54007	-162.32405	532.34674	407.95392	-15.46382	527.23590	420.54758	
2638	26.370	-221.04318	148.68016	-439.01379	182.47423	68.50792	-379.89178	-275.50403	6.81615	131.83151	129.64417	1.66687	210.23581	45.17664	797.08759	-727.89404	-93.80263	638.03027	-466.06326	61.53775	643.55469	-454.58395	-162.14922	531.81830	408.87604	-15.10221	526.28979	421.32040	
2639	26.380	-219.81865	158.57495	-439.63748	182.53537	68.44636	-379.86542	-275.45978	6.76468	131.90096	129.71904	1.61663	210.34700	44.97267	797.01245	-727.97852	-94.12830	638.11804	-465.33652	61.42459	643.67914	-453.78256	-161.82509	531.06891	409.70361	-14.98884	525.63391	422.07715	
2640	26.390	-218.97246	165.65929	-438.02615	182.45116	68.40095	-379.97412	-275.35745	6.64090	132.00551	129.81413	1.57582	210.37071	45.06321	796.98547	-727.56287	-94.16329	637.87952	-464.40302	61.03538	643.66931	-453.07480	-161.60515	530.43958	410.35144	-14.75550	525.15540	422.91937	
2641	26.400	-218.22102	171.23021	-436.27130	182.42241	68.26883	-380.06348	-275.36154	6.77189	131.94870	129.72412	1.68028	210.35663	45.82914	796.63629	-727.19336	-94.22379	637.65222	-463.80743	60.77951	643.44550	-452.47089	-161.96307	530.24298	410.99658	-14.71915	524.93121	423.49615	
2642	26.410	-220.39909	176.27515	-435.19604	182.55815	68.11774	-379.89908	-275.32013	6.90576	132.07639	129.66360	1.87750	210.31300	46.31881	796.46997	-727.14648	-94.77807	637.50104	-463.35095	60.53964	643.00244	-451.84283	-162.07040	529.88519	411.74896	-15.11967	524.71942	423.99136	
2643	26.420	-221.33537	179.76614	-434.16321	182.55150	68.09269	-379.79855	-275.27856	6.96160	132.13383	129.59518	2.03876	210.39214	46.28806	796.64917	-726.93317	-95.17120	636.59576	-462.72464	60.08919	642.43616	-451.39194	-162.44232	529.93335	412.14151	-15.44818	524.81317	424.55713	
2644	26.430	-222.81293	180.99670	-431.52750	182.62082	67.87876	-379.81317	-275.44867	7.03784	131.92880	129.51619	2.13330	210.43346	46.08696	797.79730	-726.14722	-95.62820	635.82678	-462.52805	59.63845	641.22772	-450.61334	-163.10329	530.04047	412.59900	-15.68680	524.98712	425.19678	
2645	26.440	-224.02670	179.28857	-425.90387	182.85387	67.71975	-379.62387	-275.55490	7.02395	131.86870	129.36534	2.29964	210.39677	46.98187	798.94153	-724.56525	-96.04359	634.37628	-462.36487	58.96174	640.33032	-450.97781	-163.88602	530.19000	412.91791	-16.64347	525.27502	425.60815	
2646	26.450	-224.87038	176.08684	-417.86212	182.86653	67.28510	-379.59418	-275.62198	6.97849	131.99359	129.38277	2.51189	210.34430	46.70160	801.44727	-722.39618	-96.78815	632.92365	-462.29691	58.24906	638.97412	-451.01688	-164.61502	530.54144	413.21136	-17.69791	525.60297	425.86273	
2647	26.460	-226.61958	172.71419	-408.28940	182.78691	67.02139	-379.76611	-275.75098	6.97937	131.96967	129.33495	2.68478	210.30104	47.06482	804.52448	-718.90497	-97.59718	631.43011	-462.40033	57.10052	637.47906	-451.21359	-165.25687	530.90100	413.34448	-18.12390	525.81964	425.94525	
2648	26.470	-227.77409	172.04568	-398.02277	182.63368	66.95090	-379.82367	-275.89545	6.89694	131.81369	129.34630	2.92406	210.24471	47.66502	808.31482	-714.45251	-98.53036	629.81079	-462.60172	56.19739	635.80792	-451.13965	-166.30125	531.06305	413.33826	-19.28620	526.06073	425.77502	
2649	26.480	-228.89217	171.73128	-387.11420	182.55737	66.90177	-379.84961	-275.98111	6.68854	131.87907	129.39056	3.20673	210.06418	47.51491	813.33875	-709.95123	-99.66363	628.27985	-462.98984	55.38358	634.49384	-451.50034	-167.15176	530.90558	413.24774	-20.48101	526.01654	425.63367	
2650	26.490	-230.74812	170.32680	-376.48737	182.26213	66.96548	-379.97012	-276.06827	6.54676	131.84726	129.20679	3.25096	210.01768	48.03592	818.26569	-704.22778	-101.08047	627.34906	-463.55774	54.04591	633.47174	-451.80075	-168.15038	530.50275	413.13846	-21.41044	525.79639	425.44830	
2651	26.500	-232.63338	167.86736	-366.41226	182.11018	67.04360	-380.11914	-276.14078	6.21276	131.91663	129.32172	3.26937	210.01100	48.39499	823.39758	-698.54810	-102.50048	626.69995	-463.52802	52.70928	632.80176	-452.06192	-169.50316	529.87677	412.84589	-22.81505	525.16571	425.33469	
2652	26.510	-233.86021	166.00288	-355.35147	181.98590	66.98344	-380.17493	-276.22205	5.96118	131.83636	129.28053	3.24299	210.02908	47.95696	828.55304	-692.83044	-103.55464	626.44104	-463.57980	51.62931	632.65338	-451.99353	-170.95844	529.10876	412.65448	-23.92637	524.48248	425.27359	
2653	26.520	-233.46135	165.24483	-342.73535	182.37901	67.44213	-379.76825	-276.29202	5.92504	131.81114	129.26189	3.26022	210.04874	47.43319	833.08899	-687.04718	-104.76205	626.57196	-463.56393	50.32689	632.89526	-451.97845	-172.32941	527.82141	412.56931	-25.64828	523.29626	425.13260	
2654	26.530	-234.35280	164.55292	-328.82184	182.30490	67.62956	-379.72028	-276.36057	5.84579	131.69638	129.46910	3.54669	210.23656	46.22063	837.18927	-682.31067	-106.10368	627.17828	-463.38586	49.04547	633.71783	-451.50195	-174.51468	526.16083	412.40930	-27.73007	522.11285	425.33490	
2655	26.540	-236.39075	162.62105	-315.59219	181.89174	67.32511	-380.18338	-276.42828	5.56583	131.94666	129.38065	3.68647	210.40866	44.04598	840.35126	-677.76666	-107.05761	628.05975	-463.06198	48.01492	634.75549	-450.77402	-176.66554	524.61633	412.46017	-29.55844	520.59967	425.38321	
2656	26.550	-238.79924	160.00571	-306.69174	181.84259	67.40492	-380.21579	-276.70264	5.27897	131.92943	129.25069	3.76443	210.49083	42.96011	842.12341	-674.02551	-108.31470	629.15277	-462.34329	46.70272	636.21503	-450.00430	-178.90878	522.93799	412.71783	-31.78873	519.09027	425.65967	
2657	26.560	-239.97359	156.11133	-302.70657	181.78273	67.50706	-380.26047	-276.80756	5.36115	132.09506	129.04027	3.84631	210.53645	40.92701	842.84851	-671.30157	-109.86636	630.41290	-461.36230	45.35930	637.81207	-449.07214	-180.89656	521.23877	413.09845	-33.77196	517.63202	426.37509	
2658	26.570	-241.02399	149.52034	-303.05902	181.57130	67.55241	-380.36090	-276.73785	5.40399	132.10097	128.67329	3.87121	210.47784	38.85278	842.72217	-669.34943	-111.44889	632.03979	-460.39215	43.59719	639.13239	-447.53122	-183.09695	520.26624	413.62979	-36.05188	516.69208	426.95972	
2659	26.580	-240.76364	140.00880	-307.87128	181.33124	67.59947	-380.47342	-276.93375	5.46045	132.14720	128.56058	4.25205	210.52797	36.81990	841.99481	-668.37000	-113.82922	633.50537	-459.25372	41.06263	641.14948	-446.96747	-185.10094	519.16693	414.57574	-38.13337	515.70050	427.53101	
2660	26.590	-239.90125	128.09372	-318.06970	181.04510	67.63129	-380.75961	-277.07355	5.36273	132.18143	128.55615	4.48027	210.67039	35.18248	840.68268	-668.01428	-116.31151	635.00201	-458.32028	38.90251	642.60663	-445.80325	-187.00734	518.75562	415.41455	-40.17022	515.26782	428.56903	
2661	26.600	-238.23390	114.72597	-332.19754	180.61966	67.23467	-381.26370	-277.13828	5.30386	132.22276	128.47127	4.57688	210.69022	34.16768	838.70050	-668.13293	-118.90330	636.14972	-457.26212	36.24953	643.88745	-444.82706	-188.69617	518.43231	416.46704	-41.80441	515.26013	429.46637	
2662	26.610	-235.99219	102.13764	-348.01099	180.41600	67.19773	-381.49915	-277.14136	5.31770	132.31616	128.60463	4.80586	210.57278	33.68289	836.65082	-668.62616	-121.48409	636.79803	-456.16898	33.40081	644.90521	-443.99298	-190.48541	518.27588	417.59360	-43.67348	515.52319	430.30658	
2663	26.620	-233.36087	89.48434	-363.15152	180.29582	67.12305	-381.72305	-277.10315	5.35576	132.45886	128.65338	4.97265	210.49197	33.67276	834.36536	-669.27887	-124.32001	637.05939	-455.28516	30.67729	645.45074	-443.28720	-192.60548	518.51093	418.48721	-45.67212	515.63940	431.02850	
